<svg xmlns="http://www.w3.org/2000/svg" xmlns:xlink="http://www.w3.org/1999/xlink" width="32.346" height="139.081" viewBox="0 0 32.346 139.081">
  <defs>
    <linearGradient id="linear-gradient" x1="0.5" y1="0.95" x2="0.5" y2="0.05" gradientUnits="objectBoundingBox">
      <stop id="stop1" offset="0" stop-color="#d29a15"/>
      <stop id="stop2" offset="1" stop-color="#ffd87c"/>
    </linearGradient>
     <style>
  

  #stop2 {
  animation: shine 1.5s infinite alternate ease-in-out;
}

#stop1 {
  /*   stop-color: #f0ca22; */
  animation: shine 1.5s infinite alternate ease-in-out;
}

@keyframes shine {
  from {
    box-shadow: 2px 2px 2px  #000000; 
    stop-color: transparent;
  }

  to {
    stop-color: #f0ca22;
    box-shadow: 2px 2px 2px #00ff00; 
  }
}
  </style>
  </defs>
  <g id="Lantern-02" transform="translate(-535.521 -596.37)">
    <path id="Lantern" d="M551.675,735.45h0c-.254,0-.769-.451-1.532-1.34a27.426,27.426,0,0,0-4.478-3.56,3.886,3.886,0,0,1-1.11-2.641c.152-1.346.526-2.029,1.11-2.029h11.982c.635,0,1.034.567,1.186,1.684v.268a.068.068,0,0,0,.076.077l-.077.077v.192c0,1.244-.837,2.351-2.488,3.291-.994.79-1.766,1.434-2.3,1.914l-1.991,2.029Zm8.077-10.412H543.674a3.2,3.2,0,0,1-3.253-2.488c-.031-.284-.059-.344-.077-.344.076-.407.283-.613.613-.613h21.513c.381.051.574.244.574.574v.039a3.261,3.261,0,0,1-1.187,2.105A3.216,3.216,0,0,1,559.751,725.038Zm3.56-4.325h-23.2c-.508,0-.843-.361-1-1.072a21.542,21.542,0,0,1-1.34-3.369v-.039c0-.33.219-.536.651-.612H564.88c.508,0,.766.245.766.727a25.677,25.677,0,0,1-1.838,4.249A1.836,1.836,0,0,1,563.312,720.713Zm-2.757-3.637h0a.769.769,0,0,1-.459.651,1.026,1.026,0,0,1,.114.46,1.169,1.169,0,0,1-.114.421.714.714,0,0,1,.459.651h.46l.383.267a1.6,1.6,0,0,1,.842-.344.617.617,0,0,1,.42-.574,4.721,4.721,0,0,1-.076-.5c.051-.228.076-.357.076-.383a.835.835,0,0,1-.459-.651,1.616,1.616,0,0,1-.88-.268.589.589,0,0,1-.5.268h-.268Zm-19.369,0c-.051.407-.193.613-.421.613a2.77,2.77,0,0,0,.115.536.9.9,0,0,0-.115.383.716.716,0,0,1,.421.651h.421a1.311,1.311,0,0,0,.5.267c0-.05.116-.14.344-.267h.421a.673.673,0,0,1,.5-.651l-.191-.421.191-.46a.671.671,0,0,1-.5-.651h-.421l-.383-.268h-.076l-.383.268Zm6.469,0a.768.768,0,0,1-.46.651,1.823,1.823,0,0,1,.077.5c-.049.221-.077.357-.077.383a.769.769,0,0,1,.46.651h.268a1.029,1.029,0,0,1,.536.267,1.381,1.381,0,0,1,.88-.344.826.826,0,0,1,.421-.613,1.446,1.446,0,0,1-.076-.459l.076-.383a.835.835,0,0,1-.459-.651,1.622,1.622,0,0,1-.881-.268.658.658,0,0,1-.5.268Zm6.431,0c-.051.407-.193.613-.421.613a2.823,2.823,0,0,0,.115.535.909.909,0,0,0-.115.383.716.716,0,0,1,.421.651h.345a2.674,2.674,0,0,1,.574.267c0-.05.116-.141.345-.267h.421a.718.718,0,0,1,.5-.651l-.192-.421.192-.46a.671.671,0,0,1-.5-.651h-.421l-.383-.268h-.077l-.382.268Zm11.867-2.3h-28.48c-1.092,0-1.749-.657-1.952-1.952V690.358c0-1.194.438-1.941,1.3-2.22a1.614,1.614,0,0,1,.574-.076h28.633a1.914,1.914,0,0,1,1.838,1.492v23.389c0,1.041-.644,1.659-1.914,1.837ZM560.363,699.7h0c-.177.076-.267.256-.267.535v11.445a.5.5,0,0,0,.267.46h5.13a.5.5,0,0,0,.268-.46V700.157a.5.5,0,0,0-.268-.459h-.383c-.508-.127-.766-.578-.766-1.34a4.936,4.936,0,0,1,.535-1.723,3.02,3.02,0,0,0,.23-1.264V695.1a5.721,5.721,0,0,0-2.22-4.4,6,6,0,0,0-2.144,4.364v.306a5.517,5.517,0,0,0,.651,2.336,3.7,3.7,0,0,1,.077.612c-.051.915-.3,1.379-.727,1.379Zm-13.168,0c-.406.076-.612.256-.612.536V711.6c0,.3.219.485.651.536h9.034c.355,0,.548-.219.573-.652V700.31c-.051-.406-.244-.612-.573-.612H555.5c-.762-.153-1.148-.527-1.148-1.111v-.459c0-.3.309-.795.919-1.455a2.605,2.605,0,0,0,.383-1.225V695.1c0-1.6-1.327-3.081-3.943-4.4-2.641,1.3-3.981,2.854-3.981,4.632a3.932,3.932,0,0,0,1.225,2.373,1.819,1.819,0,0,1,.114.5v.306c-.152.788-.552,1.187-1.186,1.187Zm-6.7-9a6.126,6.126,0,0,0-2.22,4.594,5.761,5.761,0,0,0,.689,2.412,1.367,1.367,0,0,1,.076.421v.383c0,.685-.245,1.085-.727,1.187h-.382c-.179,0-.282.27-.307.8v10.832c0,.534.142.8.421.8h5.015c.127,0,.23-.167.306-.5V700.195c-.076-.33-.179-.5-.306-.5h-.536a1.387,1.387,0,0,1-.574-1.34,3.384,3.384,0,0,1,.421-1.454,3.612,3.612,0,0,0,.345-1.685A5.9,5.9,0,0,0,540.5,690.7Zm24.614-3.522h-26.8c-.052,0-.1-.051-.153-.153V684c.025-.077.063-.114.114-.114h26.834c.05,0,.1.05.153.153v2.985c0,.051-.051.1-.153.153Zm-2.488-4.134H540.765c-1.194,0-1.928-1.146-2.182-3.406V679.1a6.22,6.22,0,0,1,2.832-5.091c1.025-.666,1.926-1.3,2.679-1.876a53.37,53.37,0,0,0,5.895-5.359c.686-.813,1.227-1.225,1.608-1.225h.191c.457,0,1.063.489,1.8,1.454a59.089,59.089,0,0,0,6.7,5.856,16.694,16.694,0,0,1,3.1,2.336,6.64,6.64,0,0,1,1.454,3.981v.268c-.1,1.905-.682,3.09-1.723,3.522A2.149,2.149,0,0,1,562.622,683.046Zm-20.48-3.522h0a4.073,4.073,0,0,1,.306,1.032h.039l.268-1.033a8.136,8.136,0,0,1,.88.651V680.1a4.36,4.36,0,0,1-.345-.957h.077c.28.025.525.038.727.038h.229a3.822,3.822,0,0,1-.88-.651c.592-.361.893-.535.919-.535v-.039h-.039c-.3.026-.559.039-.765.039h-.268v-.039l.345-.919h-.076l-.766.574h-.038c-.156-.644-.256-.957-.307-.957-.127.635-.243.957-.344.957a5.6,5.6,0,0,0-.8-.612l.383,1h-.421l-.651-.039.842.651v.039a2.412,2.412,0,0,0-.8.536h.307l.651-.038a.032.032,0,0,0,.008.021.1.1,0,0,0,.068.017l-.383,1c.177-.127.461-.345.841-.65Zm18.489,0h.039l.23.957h.115l.191-.957a5.285,5.285,0,0,1,.88.651v-.115a3.947,3.947,0,0,1-.344-.918c.377.025.66.038.842.038h.192a2.967,2.967,0,0,0-.8-.536v-.039a2.522,2.522,0,0,1,.88-.612v-.039l-.651.039h-.459c0-.014.035-.132.344-.958l-.8.574h-.076c-.1-.635-.2-.957-.306-.957a7.686,7.686,0,0,1-.23.957h-.039l-.8-.574v.039a7.91,7.91,0,0,1,.306.919h-.421c-.155,0-.361-.013-.612-.039h-.039v.039a2.077,2.077,0,0,1,.842.612v.039a3.1,3.1,0,0,0-.8.536h.229c.177,0,.447-.013.8-.038l-.306,1.033.8-.651Zm-9.57-1.723h.077l.536,2.105a8.5,8.5,0,0,0,.651-2.105h.038l1.8,1.378-.841-2.144h.076c.879.026,1.6.039,2.143.039a13.647,13.647,0,0,0-1.76-1.187v-.038l1.837-1.3-2.219.114a14.7,14.7,0,0,1,.765-2.182h-.076a17.146,17.146,0,0,1-1.76,1.417,8.73,8.73,0,0,0-.651-2.144,7.675,7.675,0,0,1-.651,2.144c0-.025-.579-.5-1.723-1.417v.077a14.7,14.7,0,0,1,.727,2.105h-.039l-2.144-.114h-.076v.038l1.914,1.225v.076a18.108,18.108,0,0,0-1.914,1.264.382.382,0,0,1,.154-.076c.366,0,1.075-.013,2.105-.039v.039c0,.051-.238.727-.727,2.067h.038c.932-.751,1.5-1.189,1.722-1.34Zm.578-13.052a3.84,3.84,0,1,1,3.86-3.84A3.855,3.855,0,0,1,551.64,664.75Zm-.03-6.19a2.33,2.33,0,1,0,2.3,2.33A2.318,2.318,0,0,0,551.61,658.56Zm-1.11-1.5V596.37h2.409V657.06H550.5Z"/>
    <path id="Light" d="M552.325,673.9a17.02,17.02,0,0,0,1.761-1.416h.076a14.647,14.647,0,0,0-.766,2.182l2.22-.115-1.837,1.3v.038a13.811,13.811,0,0,1,1.761,1.187q-.8,0-2.144-.038h-.076l.842,2.144-1.8-1.378h-.038a8.523,8.523,0,0,1-.651,2.106l-.536-2.106h-.077q-.345.23-1.723,1.34H549.3q.727-1.99.727-2.067v-.038q-1.57.039-2.105.038a.4.4,0,0,0-.153.077,17.886,17.886,0,0,1,1.914-1.263v-.077l-1.914-1.225v-.038h.077l2.144.115h.038a14.733,14.733,0,0,0-.727-2.105v-.076q1.722,1.378,1.723,1.416a7.574,7.574,0,0,0,.651-2.144,8.793,8.793,0,0,1,.651,2.144Zm-9.57,3.713h.038l.766-.574h.077l-.345.919v.038h.268q.306,0,.766-.038h.038v.038q-.038,0-.919.536a3.831,3.831,0,0,0,.88.651h-.23q-.307,0-.727-.038h-.077a4.356,4.356,0,0,0,.345.957v.077a8.063,8.063,0,0,0-.88-.651l-.268,1.034h-.038a4.094,4.094,0,0,0-.306-1.034q-.574.46-.842.651l.383-1c-.051,0-.077-.013-.077-.038l-.651.038h-.306a2.4,2.4,0,0,1,.8-.536v-.038l-.842-.651.651.038h.421l-.383-1a6.536,6.536,0,0,1,.8.612q.153,0,.345-.957.076,0,.306.957Zm18.451,0h.077l.8-.574q-.344.919-.345.957h.459l.651-.038v.038a2.516,2.516,0,0,0-.88.612v.038a2.931,2.931,0,0,1,.8.536h-.191q-.268,0-.842-.038a3.931,3.931,0,0,0,.345.919v.115a5.34,5.34,0,0,0-.88-.651l-.191.957H560.9l-.23-.957h-.038l-.8.651.306-1.034q-.537.039-.8.038h-.23a3.1,3.1,0,0,1,.8-.536v-.038a2.068,2.068,0,0,0-.842-.612v-.038h.038c.255.026.459.038.612.038h.421a8.014,8.014,0,0,0-.306-.919v-.038l.8.574h.038a7.674,7.674,0,0,0,.23-.957q.153,0,.306.957Zm-18.489,17.608a3.592,3.592,0,0,1-.345,1.684,3.364,3.364,0,0,0-.421,1.455q0,1.034.574,1.34h.536q.191,0,.306.5v11.445q-.115.5-.306.5h-5.014q-.422,0-.421-.8V700.5q.038-.8.306-.8h.383q.727-.153.727-1.187v-.383a1.349,1.349,0,0,0-.076-.421,5.738,5.738,0,0,1-.689-2.412,6.1,6.1,0,0,1,2.22-4.594,5.874,5.874,0,0,1,2.22,4.517Zm9-4.517q3.942,1.991,3.943,4.4v.345a2.593,2.593,0,0,1-.383,1.225q-.919,1-.919,1.455v.459q0,.881,1.148,1.11h.766q.5,0,.574.612v11.177q-.039.651-.574.651h-9.034q-.651-.076-.651-.536V700.233q0-.421.613-.536h.689q.956,0,1.187-1.187V698.2a1.823,1.823,0,0,0-.115-.5,3.913,3.913,0,0,1-1.225-2.373q0-2.679,3.981-4.632Zm13.4,4.4v.268a3.017,3.017,0,0,1-.23,1.263,4.91,4.91,0,0,0-.536,1.723q0,1.148.766,1.34h.383a.5.5,0,0,1,.268.459v11.522a.5.5,0,0,1-.268.459h-5.13a.5.5,0,0,1-.268-.459V700.233q0-.421.268-.536h.383q.651,0,.727-1.378a3.705,3.705,0,0,0-.076-.612,5.5,5.5,0,0,1-.651-2.335v-.306a5.972,5.972,0,0,1,2.144-4.364,5.694,5.694,0,0,1,2.22,4.4Zm-23.121,21.7h.077l.383.268h.421a.669.669,0,0,0,.5.651l-.191.459.191.421a.67.67,0,0,0-.5.651h-.421q-.345.192-.345.268a1.327,1.327,0,0,1-.5-.268h-.421a.713.713,0,0,0-.421-.651.9.9,0,0,1,.115-.383,2.855,2.855,0,0,1-.115-.536q.345,0,.421-.612h.421Zm7.311.268a.833.833,0,0,0,.459.651l-.077.383a1.431,1.431,0,0,0,.077.459.821.821,0,0,0-.421.613,1.373,1.373,0,0,0-.88.344,1.028,1.028,0,0,0-.536-.268h-.268a.767.767,0,0,0-.459-.651c0-.025.025-.153.076-.383a1.828,1.828,0,0,0-.076-.5.766.766,0,0,0,.459-.651h.268a.657.657,0,0,0,.5-.268,1.613,1.613,0,0,0,.88.268Zm5.589-.268h.077l.383.268h.421a.669.669,0,0,0,.5.651l-.191.459.191.421a.715.715,0,0,0-.5.651h-.421q-.345.192-.344.268a2.673,2.673,0,0,0-.574-.268h-.344a.713.713,0,0,0-.421-.651.9.9,0,0,1,.115-.383,2.851,2.851,0,0,1-.115-.536q.345,0,.421-.612h.421Zm7.311.268a.833.833,0,0,0,.459.651q0,.039-.077.383a4.661,4.661,0,0,0,.077.5.615.615,0,0,0-.421.574,1.6,1.6,0,0,0-.842.344l-.383-.268h-.459a.712.712,0,0,0-.459-.651,1.159,1.159,0,0,0,.115-.421,1.019,1.019,0,0,0-.115-.459.766.766,0,0,0,.459-.651h.268a.586.586,0,0,0,.5-.268,1.613,1.613,0,0,0,.88.268Z" fill="url(#linear-gradient)"/>
  </g>
</svg>
