<svg xmlns="http://www.w3.org/2000/svg" xmlns:xlink="http://www.w3.org/1999/xlink" width="318.552" height="253.504" viewBox="0 0 718.552 553.504">
  <defs>
    <linearGradient id="linear-gradient" x1="0.5" y1="1.1" x2="0.5" y2="-0.1" gradientUnits="objectBoundingBox">
      <stop offset="0" stop-color="#d29a15"/>
      <stop offset="1" stop-color="#ffd87c"/>
    </linearGradient>
    <filter id="Mosque" x="254.055" y="152.008" width="350.663" height="276.796" filterUnits="userSpaceOnUse">
      <feOffset dx="-5" dy="8.66" input="SourceAlpha"/>
      <feGaussianBlur result="blur"/>
      <feFlood flood-opacity="0.149"/>
      <feComposite operator="in" in2="blur"/>
      <feComposite in="SourceGraphic"/>
    </filter>
    <linearGradient id="linear-gradient-2" x1="0.846" y1="1.1" x2="0.154" y2="-0.1" gradientUnits="objectBoundingBox">
      <stop offset="0" stop-color="#ffd87c"/>
      <stop offset="1" stop-color="#d29a15"/>
    </linearGradient>
    <filter id="Cloud" x="0" y="391.622" width="327.155" height="161.881" filterUnits="userSpaceOnUse">
      <feOffset dx="8.66" dy="5" input="SourceAlpha"/>
      <feGaussianBlur result="blur-2"/>
      <feFlood flood-opacity="0.149"/>
      <feComposite operator="in" in2="blur-2"/>
      <feComposite in="SourceGraphic"/>
    </filter>
    <filter id="Cloud-2" x="0" y="391.622" width="327.155" height="161.881" filterUnits="userSpaceOnUse">
      <feOffset dy="-15" input="SourceAlpha"/>
      <feGaussianBlur result="blur-3"/>
      <feFlood flood-opacity="0.149" result="color"/>
      <feComposite operator="out" in="SourceGraphic" in2="blur-3"/>
      <feComposite operator="in" in="color"/>
      <feComposite operator="in" in2="SourceGraphic"/>
    </filter>
    <filter id="Cloud-3" x="491.393" y="352.163" width="227.158" height="112.626" filterUnits="userSpaceOnUse">
      <feOffset dx="-8.66" dy="5" input="SourceAlpha"/>
      <feGaussianBlur result="blur-4"/>
      <feFlood flood-opacity="0.149"/>
      <feComposite operator="in" in2="blur-4"/>
      <feComposite in="SourceGraphic"/>
    </filter>
    <filter id="Cloud-4" x="491.393" y="352.163" width="227.158" height="112.626" filterUnits="userSpaceOnUse">
      <feOffset dy="-15" input="SourceAlpha"/>
      <feGaussianBlur result="blur-5"/>
      <feFlood flood-opacity="0.149" result="color-2"/>
      <feComposite operator="out" in="SourceGraphic" in2="blur-5"/>
      <feComposite operator="in" in="color-2"/>
      <feComposite operator="in" in2="SourceGraphic"/>
    </filter>
  </defs>
  <g id="Group_1" data-name="Group 1" transform="translate(-181.009 -71.68)">
    <g transform="matrix(1, 0, 0, 1, 181.01, 71.68)" filter="url(#Mosque)">
      <path id="Mosque-2" data-name="Mosque" d="M777.239,399.56V338.689l7.891-14.564v-5.181H772.587V279.225h0L777.7,269.8v-3.357h-5.113V262.2H767.4v-4.739a1.946,1.946,0,0,0,0-3.794V251.9a1.946,1.946,0,0,0,.388-3.661c.114-.045.23-.091.341-.141a4.788,4.788,0,0,0,3.224-4.5c0-1.819-1.237-3.105-4.252-5.189a14.4,14.4,0,0,1-2.444-2.155l-.6-12.574-.6,12.574a14.365,14.365,0,0,1-2.442,2.155c-3.017,2.083-4.254,3.369-4.254,5.189a4.788,4.788,0,0,0,3.225,4.5c.111.049.227.1.341.141a1.946,1.946,0,0,0,.388,3.661v1.767a1.946,1.946,0,0,0,0,3.794V262.2h-5.19v4.233h-5.113V269.8l5.111,9.429h0v39.719H742.979v5.181l7.891,14.564V399.56l-8.488,9.834V382.9h-8.049c3.637-23.771-7.612-43.017-24.433-47.384a4.5,4.5,0,0,0,.57-2.254c0-1.822-1.237-3.108-4.254-5.191a14.307,14.307,0,0,1-2.037-1.723l-1.007-21.117-1.007,21.117a14.3,14.3,0,0,1-2.037,1.723c-3.017,2.083-4.254,3.37-4.254,5.191a4.5,4.5,0,0,0,.57,2.254c-16.822,4.367-28.07,23.613-24.434,47.384h-7.76v-3.762a8.674,8.674,0,0,0-8.676-8.674h-.03a31.588,31.588,0,0,0,4.316-16.385c0-35.229-35.3-38.181-45.682-57.793l-.007-.148a6.808,6.808,0,0,0,1.77-.506,3.409,3.409,0,0,0,2.294-3.2c0-1.3-.879-2.212-3.027-3.7a10.1,10.1,0,0,1-1.165-.948,4.467,4.467,0,0,0,.948-.3,2.294,2.294,0,0,0,1.543-2.152c0-.874-.592-1.488-2.037-2.486a6.9,6.9,0,0,1-.7-.56,3.785,3.785,0,0,0,.852-.257,1.889,1.889,0,0,0,1.272-1.775c0-.721-.486-1.227-1.679-2.051a5.623,5.623,0,0,1-.968-.857l-.232-4.873-.235,4.873a5.615,5.615,0,0,1-.968.857c-1.192.824-1.679,1.331-1.679,2.051a1.893,1.893,0,0,0,1.272,1.775,3.784,3.784,0,0,0,.852.257,6.649,6.649,0,0,1-.7.56c-1.444,1-2.037,1.612-2.037,2.486a2.294,2.294,0,0,0,1.543,2.152,4.465,4.465,0,0,0,.948.3,10.1,10.1,0,0,1-1.165.948c-2.148,1.484-3.027,2.4-3.027,3.7a3.409,3.409,0,0,0,2.294,3.2,6.807,6.807,0,0,0,1.77.506l-.007.148c-10.385,19.612-45.682,22.564-45.682,57.793a31.589,31.589,0,0,0,4.316,16.385h-.03a8.674,8.674,0,0,0-8.676,8.674V382.9h-8.049c3.637-23.771-7.612-43.017-24.433-47.384a4.5,4.5,0,0,0,.57-2.254c0-1.822-1.237-3.108-4.254-5.191a14.291,14.291,0,0,1-2.037-1.723l-1.007-21.117-1.007,21.117a14.3,14.3,0,0,1-2.037,1.723c-3.017,2.083-4.254,3.37-4.254,5.191a4.505,4.505,0,0,0,.57,2.254c-16.821,4.367-28.07,23.613-24.433,47.384H483.41v26.491l-8.488-9.834V338.689l7.891-14.564v-5.181H470.27V279.225h0l5.111-9.429v-3.357H470.27V262.2h-5.19v-4.739a1.946,1.946,0,0,0,0-3.794V251.9a1.946,1.946,0,0,0,.388-3.661c.114-.045.23-.091.341-.141a4.788,4.788,0,0,0,3.225-4.5c0-1.819-1.237-3.105-4.254-5.189a14.363,14.363,0,0,1-2.442-2.155l-.6-12.574-.6,12.574a14.4,14.4,0,0,1-2.444,2.155c-3.015,2.083-4.252,3.369-4.252,5.189a4.788,4.788,0,0,0,3.225,4.5c.111.049.227.1.341.141a1.946,1.946,0,0,0,.388,3.661v1.767a1.946,1.946,0,0,0,0,3.794V262.2H453.2v4.233h-5.113V269.8l5.111,9.429h0v39.719H440.662v5.181l7.891,14.564V399.56l-8.489,9.834v82.43H785.728v-82.43ZM469.251,378.593h-15.16V361.035a7.58,7.58,0,0,1,15.16,0Zm46.533,58.187H496.873V421.035a9.456,9.456,0,0,1,18.911,0Zm29.26,0H526.136V421.035a9.454,9.454,0,0,1,18.908,0Zm89.041,38.677H591.7V426.365a21.194,21.194,0,0,1,42.387,0ZM698.54,436.78H679.629V421.035a9.456,9.456,0,0,1,18.911,0Zm29.264,0H708.893V421.035a9.456,9.456,0,0,1,18.911,0Zm43.838-58.187h-15.16V361.035a7.58,7.58,0,0,1,15.16,0Z" transform="translate(-181.01 -71.68)" fill="url(#linear-gradient)"/>
    </g>
    <path id="Moon" d="M343.7,295.21c8.169,139.746,128.078,246.411,267.825,238.242A253.031,253.031,0,0,0,806.34,422.917c-37.469,95.624-127.834,165.769-237.087,172.155-149.712,8.752-278.173-105.52-286.925-255.232C275.323,220,347.154,113.786,452.884,71.68A253.321,253.321,0,0,0,343.7,295.21Z" fill="url(#linear-gradient-2)"/>
    <g data-type="innerShadowGroup">
      <g transform="matrix(1, 0, 0, 1, 181.01, 71.68)" filter="url(#Cloud)">
        <path id="Cloud-5" data-name="Cloud" d="M470.183,535.206c-.542,0-1.079.017-1.613.046a29.861,29.861,0,0,0-40.408-23.981,26.807,26.807,0,0,0-34.368-24.182,45.772,45.772,0,0,0-85.918,21.94A49.581,49.581,0,0,0,222.841,541.6a31.536,31.536,0,1,0,8.539,54.91,21.676,21.676,0,0,0,36.608,3.094,29.644,29.644,0,0,0,44.8,8.383,45.32,45.32,0,0,0,71.051-12.034,40.553,40.553,0,0,0,64.077-12.2,29.36,29.36,0,1,0,22.267-48.541Z" transform="translate(-181.01 -71.68)" fill="#fff"/>
      </g>
      <g transform="matrix(1, 0, 0, 1, 181.01, 71.68)" filter="url(#Cloud-2)">
        <path id="Cloud-6" data-name="Cloud" d="M470.183,535.206c-.542,0-1.079.017-1.613.046a29.861,29.861,0,0,0-40.408-23.981,26.807,26.807,0,0,0-34.368-24.182,45.772,45.772,0,0,0-85.918,21.94A49.581,49.581,0,0,0,222.841,541.6a31.536,31.536,0,1,0,8.539,54.91,21.676,21.676,0,0,0,36.608,3.094,29.644,29.644,0,0,0,44.8,8.383,45.32,45.32,0,0,0,71.051-12.034,40.553,40.553,0,0,0,64.077-12.2,29.36,29.36,0,1,0,22.267-48.541Z" transform="translate(-181.01 -71.68)" fill="#fff"/>
      </g>
    </g>
    <g data-type="innerShadowGroup">
      <g transform="matrix(1, 0, 0, 1, 181.01, 71.68)" filter="url(#Cloud-3)">
        <path id="Cloud-7" data-name="Cloud" d="M879.446,473.172c-.372,0-.74.012-1.107.032a20.486,20.486,0,0,0-27.721-16.452,18.391,18.391,0,0,0-23.578-16.589A31.4,31.4,0,0,0,768.1,455.213a34.014,34.014,0,0,0-58.337,22.343,21.635,21.635,0,1,0,5.858,37.67,14.87,14.87,0,0,0,25.114,2.122,20.337,20.337,0,0,0,30.735,5.751,31.091,31.091,0,0,0,48.743-8.256,27.82,27.82,0,0,0,43.959-8.371,20.142,20.142,0,1,0,15.276-33.3Z" transform="translate(-181.01 -71.68)" fill="#fff"/>
      </g>
      <g transform="matrix(1, 0, 0, 1, 181.01, 71.68)" filter="url(#Cloud-4)">
        <path id="Cloud-8" data-name="Cloud" d="M879.446,473.172c-.372,0-.74.012-1.107.032a20.486,20.486,0,0,0-27.721-16.452,18.391,18.391,0,0,0-23.578-16.589A31.4,31.4,0,0,0,768.1,455.213a34.014,34.014,0,0,0-58.337,22.343,21.635,21.635,0,1,0,5.858,37.67,14.87,14.87,0,0,0,25.114,2.122,20.337,20.337,0,0,0,30.735,5.751,31.091,31.091,0,0,0,48.743-8.256,27.82,27.82,0,0,0,43.959-8.371,20.142,20.142,0,1,0,15.276-33.3Z" transform="translate(-181.01 -71.68)" fill="#fff"/>
      </g>
    </g>
  </g>
</svg>
