<svg xmlns="http://www.w3.org/2000/svg" width="400" height="140" viewBox="0 0 1080 372.012">
  <path id="Mosque" d="M0,1080v-69.988s84,34.857,196.283,9.955c-2.971-7.99-7.626-25.643.3-43.668,3.467-7.826,10.388-15.289,18.313-21.766a169.107,169.107,0,0,1,23.132-15.709,17.516,17.516,0,0,1-.691-3.97,13.853,13.853,0,0,1,1.051-6.046v-.038c.974-2.209,3.047-4.2,5.179-5.919a56.472,56.472,0,0,1,5.865-3.8l.195-3.63a4,4,0,0,1-1.1-1.35,4.362,4.362,0,0,1-.484-1.961,3.945,3.945,0,0,1,.608-2.05,3.171,3.171,0,0,1,1.311-1.341l.071-3.157a3.358,3.358,0,0,1-.756-1.01,3.226,3.226,0,0,1-.42-1.583,2.961,2.961,0,0,1,.484-1.675,2.51,2.51,0,0,1,.98-1.078l.136-3.367,1.134-25.481a.588.588,0,1,1,1.175,0l1.157,25.481.142,3.367a3.158,3.158,0,0,1,1,1.078,3.383,3.383,0,0,1,.484,1.675,3.211,3.211,0,0,1-.4,1.583,5.848,5.848,0,0,1-.838,1.01l.135,3.157a3.676,3.676,0,0,1,1.287,1.341,3.813,3.813,0,0,1,.573,2.05,4.046,4.046,0,0,1-.478,1.976,4.335,4.335,0,0,1-1.1,1.335l.189,3.63a49.816,49.816,0,0,1,5.865,3.8,16.409,16.409,0,0,1,5.155,5.919,12.694,12.694,0,0,1,1.093,6.084,18.8,18.8,0,0,1-.715,3.97c2.64,1.515,5.545,3.29,8.516,5.2v-8.175l-4.187-3.361.018-14.643h4.441l.024-24.693-3.6-2.862V877.109H277V863.9l-2.782-1.9v-7.859h2.752V842.92l3.585-4.14,1.181-8.308.154-1.063c.1-.72.135.3.159.52l1.423,8.695,3.9,4.22.077,11.317h3.13v7.907l-2.669,1.869.047,13.172h5.457v13.216l-3.673,2.685-.077,10.759-.088,12.147V917.7l3.555.109a21.429,21.429,0,0,1,1.783-9.277c1.405-3.267,4.311-6.347,7.547-8.99a70.539,70.539,0,0,1,9.585-6.533,7.291,7.291,0,0,1-.278-1.645,5.216,5.216,0,0,1,.425-2.475l.006-.038a6.952,6.952,0,0,1,2.155-2.419,15.906,15.906,0,0,1,2.451-1.583l.024-1.536a1.355,1.355,0,0,1-.425-.535,1.461,1.461,0,0,1-.2-.786,1.762,1.762,0,0,1,.224-.877,1.724,1.724,0,0,1,.543-.541l.059-1.335a1.027,1.027,0,0,1-.325-.387,1.144,1.144,0,0,1-.154-.661,1.564,1.564,0,0,1,.16-.712,1.326,1.326,0,0,1,.431-.419l.047-1.388.472-10.567a.221.221,0,0,1,.23-.215.219.219,0,0,1,.248.215l.478,10.567.059,1.388a1.229,1.229,0,0,1,.419.419,1.584,1.584,0,0,1,.177.712,1.692,1.692,0,0,1-.148.661,1.437,1.437,0,0,1-.337.387l.065,1.335a1.406,1.406,0,0,1,.5.541,1.8,1.8,0,0,1,.266.877,1.644,1.644,0,0,1-.2.786,2.244,2.244,0,0,1-.437.535l.03,1.536a16.474,16.474,0,0,1,2.451,1.583,6.834,6.834,0,0,1,2.138,2.419,5.687,5.687,0,0,1,.437,2.513,5.16,5.16,0,0,1-.29,1.645,67.431,67.431,0,0,1,9.591,6.533c3.26,2.643,6.13,5.723,7.565,8.99a22.461,22.461,0,0,1,1.595,11.775,2.533,2.533,0,0,1,1.134.921,5.333,5.333,0,0,1,.8,2.1,5.635,5.635,0,0,1,.8-2.1,2.179,2.179,0,0,1,1.66-1.1,2.1,2.1,0,0,1,1.641,1.1,4.96,4.96,0,0,1,.821,2.1,6.144,6.144,0,0,1,.791-2.1,2.207,2.207,0,0,1,1.684-1.1c.077,0,.141.056.218.071l.03-5.1.372-54.842h-1.665a3.523,3.523,0,0,1-3.532-3.523,3.48,3.48,0,0,1,2.734-3.343V842.481l-.059-.42c.047-.49.047-.924.059-1.358V836.9H348.5a1.8,1.8,0,0,1,0-3.6h2.3a19.884,19.884,0,0,1,.284-14.312,21.913,21.913,0,0,1,6.242-7.431,57.784,57.784,0,0,1,7.9-5.346,5.128,5.128,0,0,1-.236-1.365,4.393,4.393,0,0,1,.36-2.041v-.023a5.814,5.814,0,0,1,1.76-2.017,18.538,18.538,0,0,1,2.02-1.294l.053-1.243a1.381,1.381,0,0,1-.39-.464,1.451,1.451,0,0,1-.148-.644,1.267,1.267,0,0,1,.2-.715,1.186,1.186,0,0,1,.443-.466l.03-1.06c-.1-.119-.183-.219-.272-.343a1,1,0,0,1-.124-.543,1.364,1.364,0,0,1,.141-.573,1.646,1.646,0,0,1,.331-.373l.065-1.149.4-8.718a.165.165,0,0,1,.172-.163c.124,0,.224.068.224.163l.389,8.718.053,1.149a1.176,1.176,0,0,1,.337.373,1.088,1.088,0,0,1,.148.573,1.2,1.2,0,0,1-.136.543,1.176,1.176,0,0,1-.271.343l.053,1.06a1.915,1.915,0,0,1,.431.466,1.32,1.32,0,0,1,.2.715,1.37,1.37,0,0,1-.166.644,1.508,1.508,0,0,1-.383.464l.077,1.243a17.4,17.4,0,0,1,1.99,1.294,5.45,5.45,0,0,1,1.771,2.017,5.007,5.007,0,0,1,.384,2.064,5.73,5.73,0,0,1-.278,1.365,56.47,56.47,0,0,1,7.914,5.346c2.663,2.218,5.055,4.755,6.242,7.431a19.946,19.946,0,0,1,.284,14.312h1.476a1.8,1.8,0,1,1,0,3.6h-1.435V853.4a3.468,3.468,0,0,1,2.675,3.335,3.52,3.52,0,0,1-3.52,3.523h-1.672l.248,36c2.51-5.532,7.4-10.806,13.01-15.393a120.784,120.784,0,0,1,16.547-11.238,12.343,12.343,0,0,1-.484-2.841,9.742,9.742,0,0,1,.75-4.327v-.033A12.412,12.412,0,0,1,420.6,858.2a39.236,39.236,0,0,1,4.193-2.714l.136-2.6a2.773,2.773,0,0,1-.78-.969,2.973,2.973,0,0,1-.354-1.4,2.787,2.787,0,0,1,.443-1.468,2.22,2.22,0,0,1,.939-.96l.041-2.265a2.631,2.631,0,0,1-.543-.715,2.423,2.423,0,0,1-.3-1.131,2.1,2.1,0,0,1,.36-1.2,1.766,1.766,0,0,1,.7-.771l.1-2.419.815-18.229a.414.414,0,1,1,.827,0l.838,18.229.1,2.419a2.247,2.247,0,0,1,.715.771,2.456,2.456,0,0,1,.348,1.2,2.343,2.343,0,0,1-.284,1.131,4.413,4.413,0,0,1-.6.715l.095,2.265a2.613,2.613,0,0,1,.927.96,2.818,2.818,0,0,1,.408,1.468,2.946,2.946,0,0,1-.348,1.412,2.889,2.889,0,0,1-.786.954l.136,2.6a34.155,34.155,0,0,1,4.193,2.714,11.805,11.805,0,0,1,3.7,4.235,9.164,9.164,0,0,1,.779,4.359,13.223,13.223,0,0,1-.52,2.841,121.257,121.257,0,0,1,16.565,11.238,56.8,56.8,0,0,1,9.8,10.109v-1.01c-2.994-11.766-4.831-29.336,3.03-47.21,4.394-10.006,13.311-19.54,23.356-27.794a222.992,222.992,0,0,1,29.581-20.107,21.375,21.375,0,0,1-.892-5.056,17.351,17.351,0,0,1,1.358-7.749c1.223-2.776,3.821-5.346,6.615-7.564a56.18,56.18,0,0,1,7.512-4.85l.207-4.7a5.321,5.321,0,0,1-2-4.111,5.112,5.112,0,0,1,.762-2.685,4.911,4.911,0,0,1,1.647-1.737l.16-4.011a4.622,4.622,0,0,1-1.04-1.3,4.316,4.316,0,0,1-.5-2,3.917,3.917,0,0,1,.614-2.162,3.7,3.7,0,0,1,1.252-1.35l.183-4.267,1.488-32.62a.7.7,0,0,1,.738-.706.78.78,0,0,1,.738.706l1.465,32.62.189,4.267a4.372,4.372,0,0,1,1.843,3.512,4.168,4.168,0,0,1-.5,2,3.8,3.8,0,0,1-1.051,1.3l.207,4.011a5.493,5.493,0,0,1,1.624,1.737,5.087,5.087,0,0,1,.726,2.685,5.268,5.268,0,0,1-.615,2.48,4.8,4.8,0,0,1-1.376,1.631l.236,4.7a56.349,56.349,0,0,1,7.465,4.85c2.84,2.218,5.433,4.787,6.62,7.564l.036.047a17.056,17.056,0,0,1,1.341,7.7,19.846,19.846,0,0,1-.922,5.056,222.123,222.123,0,0,1,29.628,20.107c10.046,8.254,18.922,17.788,23.345,27.794,7.241,16.486,6.236,32.706,3.691,44.362a64.627,64.627,0,0,1,6.621-6.252,120.461,120.461,0,0,1,16.559-11.238,12.3,12.3,0,0,1-.5-2.841,9.752,9.752,0,0,1,.756-4.327v-.033a12.535,12.535,0,0,1,3.7-4.235,39.939,39.939,0,0,1,4.2-2.714l.129-2.6a2.765,2.765,0,0,1-.773-.969,2.985,2.985,0,0,1-.36-1.4,2.842,2.842,0,0,1,.443-1.468,2.246,2.246,0,0,1,.939-.96l.053-2.265a2.551,2.551,0,0,1-.55-.715,2.426,2.426,0,0,1-.3-1.131,2.138,2.138,0,0,1,.354-1.2,1.776,1.776,0,0,1,.7-.771l.1-2.419.809-18.229a.417.417,0,1,1,.833,0l.839,18.229.1,2.419a2.312,2.312,0,0,1,.715.771,2.456,2.456,0,0,1,.348,1.2,2.281,2.281,0,0,1-.29,1.131,4.412,4.412,0,0,1-.6.715l.094,2.265a2.648,2.648,0,0,1,.922.96,2.718,2.718,0,0,1,.413,1.468,3.035,3.035,0,0,1-1.134,2.366l.13,2.6a33.714,33.714,0,0,1,4.2,2.714,11.723,11.723,0,0,1,3.7,4.235,9.17,9.17,0,0,1,.785,4.359,13.22,13.22,0,0,1-.519,2.841,120.9,120.9,0,0,1,16.565,11.238c5.663,4.631,10.618,9.977,13.1,15.57a35.875,35.875,0,0,1,2.12,6.344l.3-42.523H685.84a3.521,3.521,0,0,1-3.526-3.523,3.474,3.474,0,0,1,2.675-3.335V836.9h-1.435a1.8,1.8,0,1,1,0-3.6h1.476a19.943,19.943,0,0,1,.278-14.312,22.39,22.39,0,0,1,6.242-7.431,56.828,56.828,0,0,1,7.914-5.346,6.078,6.078,0,0,1-.271-1.365,5.029,5.029,0,0,1,.389-2.064,5.284,5.284,0,0,1,1.766-2.017,18.463,18.463,0,0,1,1.985-1.294l.077-1.243a1.41,1.41,0,0,1-.378-.464,1.371,1.371,0,0,1-.166-.644,1.274,1.274,0,0,1,.207-.715,1.667,1.667,0,0,1,.419-.466l.059-1.06a1.213,1.213,0,0,1-.277-.343,1.376,1.376,0,0,1-.136-.543,1.1,1.1,0,0,1,.16-.573,1.035,1.035,0,0,1,.331-.373l.053-1.149.384-8.718c0-.094.1-.163.23-.163a.164.164,0,0,1,.172.163l.4,8.718.059,1.149a1.25,1.25,0,0,1,.336.373,1.366,1.366,0,0,1,.148.573.958.958,0,0,1-.129.543,3.727,3.727,0,0,1-.272.343l.036,1.06a1.23,1.23,0,0,1,.443.466,1.313,1.313,0,0,1,.189.715,1.53,1.53,0,0,1-.142.644,1.371,1.371,0,0,1-.389.464l.053,1.243a17.969,17.969,0,0,1,2.014,1.294,5.692,5.692,0,0,1,1.76,2.017v.023a4.566,4.566,0,0,1,.372,2.041,6.2,6.2,0,0,1-.242,1.365,58.153,58.153,0,0,1,7.9,5.346,21.691,21.691,0,0,1,6.236,7.431,19.854,19.854,0,0,1,.284,14.312h2.3a1.8,1.8,0,1,1,0,3.6h-1.476V840.7c0,.434,0,.868.047,1.358l-.047.42v10.913a3.481,3.481,0,0,1,2.729,3.343,3.526,3.526,0,0,1-3.531,3.523h-1.666l.366,54.842.036,5.121a2.419,2.419,0,0,1,1.4,1.007,6.4,6.4,0,0,1,.792,2.1,4.888,4.888,0,0,1,.821-2.1,2.1,2.1,0,0,1,1.636-1.1,2.2,2.2,0,0,1,1.665,1.1,5.626,5.626,0,0,1,.8,2.1,5.155,5.155,0,0,1,.8-2.1,2.533,2.533,0,0,1,1.134-.921,22.465,22.465,0,0,1,1.594-11.775c1.435-3.267,4.306-6.347,7.565-8.99a67.4,67.4,0,0,1,9.585-6.533,5.5,5.5,0,0,1-.29-1.645,5.775,5.775,0,0,1,.443-2.513,6.912,6.912,0,0,1,2.126-2.419,17.782,17.782,0,0,1,2.451-1.583l.041-1.536a2.11,2.11,0,0,1-.437-.535,1.582,1.582,0,0,1-.207-.786,1.8,1.8,0,0,1,.272-.877,1.4,1.4,0,0,1,.5-.541l.065-1.335a1.35,1.35,0,0,1-.337-.387,1.516,1.516,0,0,1-.154-.661,1.455,1.455,0,0,1,.183-.712,1.23,1.23,0,0,1,.419-.419l.047-1.388.491-10.567c0-.139.1-.215.248-.215a.229.229,0,0,1,.23.215l.466,10.567.053,1.388a1.389,1.389,0,0,1,.431.419,1.565,1.565,0,0,1,.16.712,1.144,1.144,0,0,1-.154.661,1.011,1.011,0,0,1-.337.387l.071,1.335a1.642,1.642,0,0,1,.538.541,1.705,1.705,0,0,1,.23.877,1.467,1.467,0,0,1-.2.786,1.411,1.411,0,0,1-.425.535l.024,1.536a16.2,16.2,0,0,1,2.451,1.583,6.951,6.951,0,0,1,2.155,2.419l.006.038a5.231,5.231,0,0,1,.425,2.475,7.65,7.65,0,0,1-.278,1.645,70.575,70.575,0,0,1,9.585,6.533c3.23,2.643,6.142,5.723,7.547,8.99a21.519,21.519,0,0,1,1.778,9.277l3.561-.109v-1.784l-.088-12.147-.077-10.759-3.673-2.685V877.109h5.456l.041-13.172-2.663-1.869v-7.907h3.118l.089-11.317,3.9-4.22,1.411-8.695c.03-.224.071-1.241.171-.52l.154,1.063,1.181,8.308,3.585,4.14v11.226H799.6v7.859l-2.788,1.9v13.2h5.469v13.178l-3.6,2.862.024,24.693h4.441l.006,14.643-4.175,3.361V947.66c4.878-3.39,9.721-6.408,13.966-8.836a17.513,17.513,0,0,1-.691-3.97,13.833,13.833,0,0,1,1.04-6.046v-.038c.986-2.209,3.053-4.2,5.185-5.919a55.779,55.779,0,0,1,5.864-3.8l.195-3.63a3.987,3.987,0,0,1-1.092-1.35,4.221,4.221,0,0,1-.49-1.961,3.84,3.84,0,0,1,.614-2.05,3.107,3.107,0,0,1,1.311-1.341l.071-3.157a3.39,3.39,0,0,1-.762-1.01,3.3,3.3,0,0,1-.425-1.583,2.969,2.969,0,0,1,.5-1.675,2.457,2.457,0,0,1,.975-1.078l.135-3.367,1.14-25.481a.591.591,0,0,1,.6-.6.6.6,0,0,1,.561.6l1.164,25.481.148,3.367a3.137,3.137,0,0,1,1,1.078,3.441,3.441,0,0,1,.478,1.675,3.269,3.269,0,0,1-.384,1.583,6.107,6.107,0,0,1-.838,1.01l.13,3.157a3.728,3.728,0,0,1,1.287,1.341,3.813,3.813,0,0,1,.573,2.05,4.05,4.05,0,0,1-.484,1.976,4.317,4.317,0,0,1-1.093,1.335l.189,3.63a49.787,49.787,0,0,1,5.858,3.8,16.443,16.443,0,0,1,5.167,5.919,12.759,12.759,0,0,1,1.093,6.084,18.351,18.351,0,0,1-.721,3.97,170.29,170.29,0,0,1,23.15,15.709c7.907,6.477,14.841,13.94,18.319,21.766,7.756,17.662,3.431,34.987.455,43.2,102.7,28.1,196.837-10.489,196.837-10.489V1080ZM355.99,843.907c1.116-3.157-2.528-3.777-4.648-5.3-1.2,1.187-.874,3.024-.077,5.3.218.612.414,1.149-.077,1.755a1.657,1.657,0,0,0-.4,1.163v6.406h5.669v-6.406a1.519,1.519,0,0,0-.36-1.163C355.582,845.056,355.789,844.518,355.99,843.907Zm19.683,0c1.465-4.111-5.2-3.916-5.976-7.011h-.065c-.815,3.1-7.429,2.9-6,7.011.224.612.431,1.149-.047,1.755a1.626,1.626,0,0,0-.437,1.163v6.406h13.01v-6.406a1.636,1.636,0,0,0-.408-1.163A1.619,1.619,0,0,1,375.673,843.907Zm12.815,9.324v-6.406a1.694,1.694,0,0,0-.4-1.163c-.508-.605-.3-1.143-.089-1.755.8-2.242,1.1-4.073-.059-5.266-2.12,1.495-5.722,2.132-4.63,5.266a1.6,1.6,0,0,1-.071,1.755,1.611,1.611,0,0,0-.4,1.163v6.406ZM691,843.907c1.1-3.134-2.51-3.771-4.63-5.266-1.152,1.193-.851,3.024-.059,5.266.213.612.425,1.149-.077,1.755a1.657,1.657,0,0,0-.4,1.163v6.406h5.634v-6.406a1.59,1.59,0,0,0-.4-1.163A1.6,1.6,0,0,1,691,843.907Zm19.695,0c1.424-4.111-5.2-3.916-6.006-7.011h-.059c-.792,3.1-7.453,2.9-5.988,7.011a1.619,1.619,0,0,1-.071,1.755,1.614,1.614,0,0,0-.4,1.163v6.406h13v-6.406a1.625,1.625,0,0,0-.437-1.163C710.259,845.056,710.46,844.518,710.7,843.907Zm12.833,9.324v-6.406a1.611,1.611,0,0,0-.4-1.163c-.491-.605-.3-1.143-.077-1.755.8-2.274,1.128-4.111-.071-5.3-2.12,1.521-5.77,2.141-4.648,5.3.2.612.414,1.149-.106,1.755a1.51,1.51,0,0,0-.367,1.163v6.406Z" transform="translate(0 -707.988)" fill="rgba(0,0,0,0.2)"/>
</svg>
